<?xml version="1.0" encoding="UTF-8" standalone="no"?>
<!-- Created with Inkscape (http://www.inkscape.org/) -->

<svg
   xmlns:dc="http://purl.org/dc/elements/1.1/"
   xmlns:cc="http://creativecommons.org/ns#"
   xmlns:rdf="http://www.w3.org/1999/02/22-rdf-syntax-ns#"
   xmlns:svg="http://www.w3.org/2000/svg"
   xmlns="http://www.w3.org/2000/svg"
   xmlns:sodipodi="http://sodipodi.sourceforge.net/DTD/sodipodi-0.dtd"
   xmlns:inkscape="http://www.inkscape.org/namespaces/inkscape"
   width="86"
   height="86"
   id="svg2"
   version="1.1"
   inkscape:version="0.48.3.1 r9886"
   sodipodi:docname="icon.svg"
   inkscape:export-filename="/home/xitij/Dropbox/Development/BB-Py_Twitter/assets/icon.png"
   inkscape:export-xdpi="90"
   inkscape:export-ydpi="90">
  <defs
     id="defs4" />
  <sodipodi:namedview
     id="base"
     pagecolor="#ffffff"
     bordercolor="#666666"
     borderopacity="1.0"
     inkscape:pageopacity="0.0"
     inkscape:pageshadow="2"
     inkscape:zoom="4"
     inkscape:cx="23.432458"
     inkscape:cy="44.012564"
     inkscape:document-units="px"
     inkscape:current-layer="layer1"
     showgrid="false"
     showguides="true"
     inkscape:guide-bbox="true"
     inkscape:window-width="1855"
     inkscape:window-height="1056"
     inkscape:window-x="1985"
     inkscape:window-y="24"
     inkscape:window-maximized="1"
     fit-margin-top="0"
     fit-margin-left="0"
     fit-margin-right="0"
     fit-margin-bottom="0" />
  <metadata
     id="metadata7">
    <rdf:RDF>
      <cc:Work
         rdf:about="">
        <dc:format>image/svg+xml</dc:format>
        <dc:type
           rdf:resource="http://purl.org/dc/dcmitype/StillImage" />
        <dc:title />
      </cc:Work>
    </rdf:RDF>
  </metadata>
  <g
     inkscape:label="Layer 1"
     inkscape:groupmode="layer"
     id="layer1"
     transform="translate(-298.73214,-436.5491)">
    <path
       style="fill:#ffffff;fill-opacity:0.25098039;stroke:none"
       d="m 55.09375,22.6875 c -0.112,0 -0.20051,0.025 -0.3125,0.0625 -0.89605,0.14939 -1.79156,0.35764 -2.6875,0.65625 l -0.125,-0.09375 c -0.52272,-0.29862 -1.09023,-0.27952 -1.6875,0.09375 -2.16539,1.34405 -3.95639,3.15415 -5.375,5.46875 -1.41871,2.31474 -2.64219,4.82422 -3.6875,7.4375 -1.26936,-1.11994 -2.30371,-1.90786 -3.125,-2.28125 -2.24003,-1.26927 -4.59853,-2.39209 -7.0625,-3.4375 -2.46402,-1.04526 -5.27028,-2.18027 -8.40625,-3.375 -0.52268,-0.14927 -0.97043,-0.07983 -1.34375,0.21875 -0.37336,0.22406 -0.63193,0.60239 -0.78125,1.125 -0.07469,0.97072 0.06414,2.05539 0.4375,3.25 0.37332,1.12004 1.11089,2.25505 2.15625,3.375 -0.89602,0.22405 -1.30561,0.81063 -1.15625,1.78125 0.44798,2.46404 1.70274,4.27415 3.71875,5.46875 l -0.6875,0.6875 c -0.52268,0.5227 -0.59212,1.10929 -0.21875,1.78125 0.14931,0.44804 0.61614,1.15438 1.4375,2.125 0.82131,0.89604 2.02572,1.58328 3.59375,2.03125 -0.22404,0.44803 -0.34378,0.84545 -0.34375,1.21875 -3e-5,0.37336 0.0504,0.6632 0.125,0.8125 0.22398,1.1947 0.93029,2.09021 2.125,2.6875 -1.34403,0.89603 -2.77577,1.5017 -4.34375,1.875 C 25.8504,55.95506 24.31798,56.0746 22.75,56 c -1.56802,-0.14931 -3.13168,-0.52765 -4.625,-1.125 -1.41868,-0.67197 -2.66127,-1.54838 -3.78125,-2.59375 -0.29868,-0.29863 -0.67701,-0.40623 -1.125,-0.40625 -0.37335,2e-5 -0.70133,0.10762 -1,0.40625 C 11.39742,52.95328 11.328,53.69087 12,54.4375 c 2.91199,4.03202 6.51308,7.11593 10.84375,9.28125 4.33066,2.09068 9.06673,3.15627 14.21875,3.15625 3.50929,2e-5 6.85179,-0.49805 10.0625,-1.46875 3.21061,-0.97064 6.13661,-2.31388 8.75,-4.03125 2.61326,-1.7173 4.88327,-3.76689 6.75,-6.15625 1.94127,-2.3893 3.35394,-5.00637 4.25,-7.84375 2.98659,-0.22396 5.31383,-1.25829 7.03125,-3.125 0.52258,-0.52262 0.62325,-1.14045 0.25,-1.8125 -0.29875,-0.67199 -0.86624,-0.89931 -1.6875,-0.75 l -0.21875,0 c 0.82125,-0.8213 1.3575,-1.67861 1.65625,-2.5 0.29858,-0.74661 0.15976,-1.3332 -0.4375,-1.78125 -0.52273,-0.52262 -1.10933,-0.57295 -1.78125,-0.125 -0.29874,0.14938 -0.86624,0.3698 -1.6875,0.59375 -0.74673,0.22393 -1.54155,0.31256 -2.4375,0.3125 -0.14939,6e-5 -0.31949,6e-5 -0.46875,0 -0.07472,-0.0745 -0.19448,-0.09371 -0.34375,-0.09375 0,-0.07463 -0.01925,-0.14415 -0.09375,-0.21875 -6e-5,-0.07464 -6e-5,-0.1754 0,-0.25 -0.5974,-2.23996 -1.66299,-4.2392 -3.15625,-6.03125 -1.49341,-1.79196 -3.21498,-3.08487 -5.15625,-3.90625 0.14928,-0.14927 0.26915,-0.31935 0.34375,-0.46875 0.07461,-0.14929 0.19437,-0.2881 0.34375,-0.4375 0.22395,-0.59726 0.22395,-1.18386 0,-1.78125 -0.07472,-0.22394 -0.31422,-0.53287 -0.6875,-0.90625 C 57.97035,23.72039 57.33344,23.5505 56.4375,23.625 56.36279,23.47574 56.27429,23.36814 56.125,23.21875 55.78895,22.88279 55.42973,22.6875 55.09375,22.6875 z"
       transform="translate(298.73214,436.5491)"
       id="rect3012"
       sodipodi:insensitive="true"
       inkscape:connector-curvature="0" />
    <flowRoot
       xml:space="preserve"
       id="flowRoot2989"
       style="font-size:20px;font-style:normal;font-variant:normal;font-weight:normal;font-stretch:normal;text-align:start;line-height:100%;letter-spacing:0px;word-spacing:0px;writing-mode:lr-tb;text-anchor:start;fill:#000000;fill-opacity:1;stroke:none;font-family:fontawesome-webfont;-inkscape-font-specification:fontawesome-webfont"
       transform="translate(297.14286,18.571429)"><flowRegion
         id="flowRegion2991"><rect
           id="rect2993"
           width="561.42859"
           height="415.71429"
           x="-131.42857"
           y="355.21933" /></flowRegion><flowPara
         id="flowPara2995"
         style="font-style:normal;font-variant:normal;font-weight:normal;font-stretch:normal;font-family:fontawesome-webfont;-inkscape-font-specification:fontawesome-webfont" /></flowRoot>    <path
       style="font-size:15.74074173px;font-style:normal;font-variant:normal;font-weight:normal;font-stretch:normal;text-align:start;line-height:100%;letter-spacing:0px;word-spacing:0px;writing-mode:lr-tb;text-anchor:start;fill:#800080;fill-opacity:1;stroke:#3f0040;stroke-width:1.99999988;stroke-linecap:round;stroke-linejoin:round;stroke-miterlimit:4;stroke-opacity:0.50196078;stroke-dasharray:none;font-family:fontawesome-webfont;-inkscape-font-specification:fontawesome-webfont"
       d="m 310.17038,437.5491 c -1.41868,10e-5 -2.77625,0.29834 -4.04559,0.89558 -1.26935,0.52276 -2.39552,1.28384 -3.36618,2.25442 -0.896,0.89609 -1.6262,2.02227 -2.22353,3.36618 -0.52267,1.26939 -0.80294,2.59611 -0.80294,4.01471 l 0,62.9691 c 0,1.49334 0.28027,2.86892 0.80294,4.13824 0.59733,1.26935 1.32753,2.39551 2.22353,3.36617 0.97066,0.89602 2.09683,1.62621 3.36618,2.22353 1.26934,0.52267 2.62691,0.77206 4.04559,0.77206 l 63.03087,0 c 1.4186,0 2.77618,-0.24938 4.0456,-0.77206 1.34392,-0.59733 2.47009,-1.32752 3.36617,-2.22353 0.97058,-0.97065 1.70078,-2.09682 2.22353,-3.36617 0.59724,-1.26932 0.89549,-2.6449 0.89559,-4.13824 l 0,-62.9691 c -1e-4,-2.91194 -1.02854,-5.3648 -3.11912,-7.38089 -2.01608,-2.09059 -4.49984,-3.1499 -7.41177,-3.15 l -63.03087,0 z m 43.66765,21.67942 c 0.33598,0 0.68306,0.18903 1.01911,0.52499 0.14929,0.14939 0.23411,0.28308 0.30882,0.43234 0.89594,-0.0745 1.54131,0.0899 1.91471,0.46326 0.37328,0.37338 0.60468,0.67164 0.6794,0.89558 0.22395,0.59739 0.22395,1.19391 0,1.79117 -0.14938,0.1494 -0.26509,0.28308 -0.3397,0.43237 -0.0746,0.1494 -0.19042,0.31396 -0.3397,0.46323 1.94127,0.82138 3.66395,2.1301 5.15736,3.92206 1.49326,1.79205 2.55259,3.7821 3.14999,6.02206 -6e-5,0.0746 -6e-5,0.17243 0,0.24707 0.0745,0.0746 0.0926,0.14154 0.0926,0.21617 0.14927,4e-5 0.26499,0.0181 0.33971,0.0926 0.14926,6e-5 0.31383,6e-5 0.46322,0 0.89595,6e-5 1.69299,-0.0849 2.43972,-0.30883 0.82126,-0.22395 1.39979,-0.43739 1.69853,-0.58677 0.67192,-0.44795 1.26844,-0.39908 1.79117,0.12354 0.59726,0.44805 0.73094,1.04457 0.43236,1.79118 -0.29875,0.82139 -0.84639,1.64929 -1.66764,2.47059 l 0.21617,0 c 0.82126,-0.14931 1.39977,0.10004 1.69852,0.77203 0.37325,0.67205 0.27553,1.26857 -0.24705,1.79119 -1.71742,1.86672 -4.05459,2.92604 -7.04118,3.15 -0.89606,2.83739 -2.3205,5.45483 -4.26177,7.84412 -1.86673,2.38936 -4.11908,4.42828 -6.73234,6.14558 -2.61339,1.71737 -5.5291,3.07495 -8.73971,4.04559 -3.21071,0.9707 -6.55836,1.4515 -10.06765,1.45148 -5.15202,2e-5 -9.90611,-1.05932 -14.23677,-3.15 -4.33067,-2.16532 -7.92771,-5.26357 -10.8397,-9.29559 -0.672,-0.74663 -0.60516,-1.45886 0.21617,-2.13089 0.29867,-0.29863 0.64578,-0.43232 1.01913,-0.43234 0.44799,2e-5 0.81308,0.13371 1.11176,0.43234 1.11998,1.04537 2.37985,1.92216 3.79853,2.59413 1.49332,0.59735 3.03344,0.96245 4.60146,1.11176 1.56798,0.0746 3.10812,-0.0409 4.60147,-0.33971 1.56798,-0.3733 3.0104,-0.98779 4.35443,-1.88382 -1.19471,-0.59729 -1.90692,-1.49207 -2.1309,-2.68677 -0.0746,-0.1493 -0.12356,-0.42957 -0.12353,-0.80293 -3e-5,-0.3733 0.11568,-0.78727 0.33972,-1.2353 -1.56803,-0.44797 -2.76105,-1.11132 -3.58236,-2.00736 -0.82136,-0.97062 -1.30215,-1.68283 -1.45146,-2.13087 -0.37337,-0.67196 -0.30651,-1.26848 0.21617,-1.79118 l 0.67941,-0.67943 c -2.01601,-1.1946 -3.2579,-3.00212 -3.70588,-5.46616 -0.14936,-0.97062 0.24663,-1.56713 1.14265,-1.79118 -1.04536,-1.11995 -1.75757,-2.24613 -2.13089,-3.36617 -0.37336,-1.19461 -0.53793,-2.27193 -0.46324,-3.24265 0.14932,-0.52261 0.42959,-0.9186 0.80295,-1.14266 0.37332,-0.29858 0.80526,-0.36544 1.32794,-0.21617 3.13597,1.19473 5.93597,2.32091 8.39999,3.36617 2.46397,1.04541 4.83204,2.18956 7.07207,3.45883 0.82129,0.37339 1.84975,1.13448 3.11911,2.25442 1.04531,-2.61328 2.28718,-5.09703 3.70589,-7.41177 1.41861,-2.3146 3.20814,-4.12212 5.37353,-5.46617 0.59727,-0.37327 1.14493,-0.42214 1.66765,-0.12352 l 0.12353,0.12352 c 0.89594,-0.29861 1.7907,-0.53002 2.68675,-0.67941 0.11199,-0.0375 0.22772,-0.0618 0.33972,-0.0618 z"
       id="text2997"
       inkscape:connector-curvature="0"
       sodipodi:insensitive="true" />
  </g>
</svg>
